<svg xmlns="http://www.w3.org/2000/svg" width="52.72" height="50.693" viewBox="0 0 52.72 50.693">
  <g id="Ebene_3_Kopie" transform="translate(-21.619 0.339)">
    <g id="Gruppe_35" data-name="Gruppe 35" transform="translate(-0.015 0.004)">
      <path id="Vereinigungsmenge_5" data-name="Vereinigungsmenge 5" d="M42.744,49.79a4.79,4.79,0,0,1-2.16-1.725c-2.016-3.015-4.209-6.449-7.089-10.443-1.952-2.7-3.008-4.3-5.153-6.838a2.161,2.161,0,0,1-.448-1.337c-.848-.684-1.3-1.165-2.064-1.9-2.24-2.222-4.72-7.692-4.833-7.988-.16-.4,1.664.87,2.016,1.88,1.376,3.9,2.3,5.253,4.961,7.739l.272-1.445c.448,1.181.416,1.943,1.36,2.953a50.661,50.661,0,0,1,4.065,5.455c2.864,4.025,5.7,8.563,6.961,10.552a5.865,5.865,0,0,0,2.352,2.424c.768.233,2.592.435,2.7-.389.112-.855-.1-.855-.72-1.134a4.9,4.9,0,0,1-1.376-1.212c-2.512-3.807-4.625-7.6-7.073-12.168-.656-1.228-1.392-2.316-1.392-3.232a5.359,5.359,0,0,1,.048-1.212c.288.792.288,1.305.928,1.632.624.311,3.136.093,2.56.249a6.61,6.61,0,0,1-1.744.264,4.544,4.544,0,0,1-1.024-.062,4.957,4.957,0,0,0,.592,1.709A103.429,103.429,0,0,0,42.28,43.9c.864,1.383,1.12,2.222,2.4,3.092.5.342,1.056.2,1.36.715a1.4,1.4,0,0,1,.176.808c0,1.009-1.074,1.484-2.2,1.484A3.878,3.878,0,0,1,42.744,49.79Zm1.9-5.066a17.421,17.421,0,0,1,.7-3.5c.352-1.554.944-2.409.608-3.326-.432-1.15-.624-1.725-1.056-2.813a36.338,36.338,0,0,0-2.192-4.864,1.931,1.931,0,0,1-.688.357c-.7.28.528-.435.976-1.647a15.276,15.276,0,0,0,.272-2.113c.128-.591.512-1.943.448-1.492a8.1,8.1,0,0,0-.08,1.523,8.08,8.08,0,0,1,.048,1.523c-.1.59-.5,1.259-.5,1.461.032.746,1.2,3.139,1.936,5.175a18.585,18.585,0,0,1,1.248,3.512,4.748,4.748,0,0,1-.432,1.849c-.61,1.626-1.095,4.5-1.252,4.5C44.672,44.873,44.657,44.826,44.648,44.724Zm-2.816-3.683c-.464-.559-.032-1.8-.1-2.549-.176-2.082-2.384-5.7-1.584-4.631a18.423,18.423,0,0,1,2.288,4.211c.2.572-.277,3-.559,3A.064.064,0,0,1,41.832,41.041Zm5.553-13.38c-.816-.731-2.192-2.486-3.536-3.59-2.88-2.3-6.481-3.481-4.529-2.937a34.809,34.809,0,0,1,3.28,1.8c2.368,1.414,4.129,3.745,5.169,4.678a2.839,2.839,0,0,0,2.912-.031c.432-.249.64-.373.752-.886s-1.264-3.714-1.872-5.781c-.5-1.678.96-2.533.672-4.165a11.453,11.453,0,0,0-1.1-2.642c-.64-1.57,1.376-4.942,1.168-4.973a2.826,2.826,0,0,0-2.224.606,13,13,0,0,0-2.256,2.5,4.846,4.846,0,0,1,1.056.637c.336.249.96.824.784.715a6.544,6.544,0,0,0-1.36-.761,9.1,9.1,0,0,0-2.24-.684c-.944-.187-1.456-.528-3.024-1.849a4.24,4.24,0,0,0-.944-.653c-.56-.264-.8.995-.576,2.129.224,1.1.016,3.217-1.424,3.839a3.661,3.661,0,0,1-3.857-1.057,2.869,2.869,0,0,0,3.312.528,2.73,2.73,0,0,0,1.1-3.124c-.3-1.212-.832-3.792-.032-3.543a7.409,7.409,0,0,1,2.592,1.585c1.632,1.585,2.64,1.787,3.312,1.865.464.047,1.04-1.243,2.032-2.082a4.73,4.73,0,0,1,4.129-1.119c.48.14-1.568,3.124-1.408,4.864.144,1.647,1.5,2.253,1.728,3.9.192,1.476-.816,2.362-.464,3.807.576,2.455,1.344,4.336,1.456,5.221.08.606-.544,1.15-.992,1.368a4.141,4.141,0,0,1-1.856.492A2.552,2.552,0,0,1,47.384,27.661ZM7.875,23.714c-.151-.448.253-.309.78-.17a1.861,1.861,0,0,0,1.284.03c1.728-.932.736-5.579,2.224-6.76a.57.57,0,0,1,.832.109c.7,1.274,1.04,3.621,3.713,3.388,1.136-.093,2.032-.886,2.816-2.331,1.008-1.865,1.28-6.061,1.7-4.786a4.778,4.778,0,0,1,.048,2.642c-.88,4.336-2.976,5.315-4.913,5.175-2.5-.2-3.329-4.009-3.537-3.9-.976.466-1.1,1.321-1.2,2.44-.128,1.6.08,2.331-.672,3.745a1.677,1.677,0,0,1-.464.5s-.288.389-1.3.389C8.42,24.149,8,23.962,7.875,23.714Zm1.264-5.8a15.576,15.576,0,0,0,.944-4.18c.16-1.072-.4-2.486.672-2.58.544-.031,1.808.559,1.264.559-.16,0-.688-.3-1.04-.109a.829.829,0,0,0-.448.653c-.464,2.813.16,4.367-1.232,6.791-.4.7-1.04,1.445-1.408,1.523a.88.88,0,0,1-.171.02C6.965,20.595,8.748,18.9,9.14,17.917ZM.1,13.131c-.192-.73-.112-1.414.32-1.678a1.793,1.793,0,0,1,.963-.043,5.412,5.412,0,0,0,4.158-1.215c2.576-1.943,2.624-3.73,4.753-6.341A9.674,9.674,0,0,1,19.733.108a9.969,9.969,0,0,1,5.713,2.3,15.37,15.37,0,0,1,3.52,4.957,27.954,27.954,0,0,1,1.7,3.667c-.48-.73-1.376-2.238-1.808-3.077a18.253,18.253,0,0,0-3.792-5.1,8.083,8.083,0,0,0-5.729-1.9A11.537,11.537,0,0,0,13.38,2.641c-2.4,1.647-3.232,4.1-5.953,6.636a10.061,10.061,0,0,1-3.712,2.238,6.112,6.112,0,0,1-2.052.074c-.612-.052-1.085-.1-1.18.065a2.035,2.035,0,0,0,1.2,2.6,4.261,4.261,0,0,0,2.644.087c.739-.152,1.25-.3,1.164.038-.136.528-1.009.855-2.02.855C2.1,15.229.485,14.632.1,13.131Zm11.938-2.6a7.475,7.475,0,0,1,.032-2.875c.88-2.207.048,2.082.416,3.341a14.243,14.243,0,0,0,2.08,3.947c.076.124.1.18.086.18A13.31,13.31,0,0,1,12.036,10.536Z" transform="translate(22)" fill="#fff" stroke="#fff" stroke-width="0.7"/>
    </g>
  </g>
</svg>
